# xmcd
#
# Track frame offsets:
#       150
#       39643
#       65046
#       81522
#       105646
#       128217
#       152544
#       171663
#       181859
#       203772
#       221195
#       238780
#       272363
#
# Disc length: 4056 seconds
#
# Revision: 0
# Processed by: cddbd v1.5.1PL0 Copyright (c) Steve Scherf et al.
# Submitted via: CD-DA_X-Tractor v0.24
#
DISCID=bf0fd60d
DTITLE=Curits Mayfield - The Very Best Of
DYEAR=1900
DGENRE=
TTITLE0=Move On Up
TTITLE1=Get Down
TTITLE2=Give It Up
TTITLE3=Little Child Runnin Wild
TTITLE4=Pusherman
TTITLE5=Freddie's Dead
TTITLE6=Give Me Your (Love Song)
TTITLE7=Eddie You Should Know Better
TTITLE8=No Thing On Me (Cocaine On Me)
TTITLE9=Superfly
TTITLE10=People Get Ready
TTITLE11=Right On For The  Darkness
TTITLE12=(Don't Worry) If There's A Hell Below We'er All Gonna Go
EXTD=
EXTT0=
EXTT1=
EXTT2=
EXTT3=
EXTT4=
EXTT5=
EXTT6=
EXTT7=
EXTT8=
EXTT9=
EXTT10=
EXTT11=
EXTT12=
PLAYORDER=
